# xmcd
#
# Track frame offsets:
# 150
# 11557
# 24944
# 37653
# 51158
# 65461
# 78620
# 89447
# 102717
# 119956
# 131480
# 143890
# 158548
# 175599
# 191777
# 205967
# 222849
# 236055
# 247812
# 259029
# 269906
# 288583
# 302643
# 316004
#
# Disc length: 4384 seconds
#
#
# Revision: 0
# Processed by: cddbd v1.5.2PL0 Copyright (c) Steve Scherf et al.
# Submitted via: FreeRIP 2.95 
#
DISCID=5c111e18
DTITLE=Martinho Da Vila - Sempre sucesso
DYEAR=2007
DGENRE=Samba
TTITLE0=Canta, Canta Minha Gente
TTITLE1=Devagar, Devagarinho
TTITLE2=O Pequeno Burguês
TTITLE3=Batuque Na Cozinha
TTITLE4=Pra Que Dinheiro
TTITLE5=Na Aba
TTITLE6=Disritimia
TTITLE7=Pagode Da Saideira
TTITLE8=Amor Não é Brinquedo
TTITLE9=Tudo Menos Amor
TTITLE10=Me Faz Um Dengo
TTITLE11=Mulheres
TTITLE12=Madalena Do Jucú
TTITLE13=Ex Amor
TTITLE14=Menina Moça
TTITLE15=Quem é do Mar Não Enjoa
TTITLE16=Você Num Passa De Uma Mulher
TTITLE17=Segura Tudo
TTITLE18=Pelo Telefone
TTITLE19=Casa De Bamba
TTITLE20=Partido Alto Da Antiga
TTITLE21=Coração De Malandro
TTITLE22=Aquarela Brasileira
TTITLE23=Oi Cumpadre
EXTD=
EXTT0=
EXTT1=
EXTT2=
EXTT3=
EXTT4=
EXTT5=
EXTT6=
EXTT7=
EXTT8=
EXTT9=
EXTT10=
EXTT11=
EXTT12=
EXTT13=
EXTT14=
EXTT15=
EXTT16=
EXTT17=
EXTT18=
EXTT19=
EXTT20=
EXTT21=
EXTT22=
EXTT23=
PLAYORDER=
